<svg width="232" height="71" viewBox="0 0 232 71" fill="none" xmlns="http://www.w3.org/2000/svg">
<path fill-rule="evenodd" clip-rule="evenodd" d="M45.3539 15.3371C45.4565 15.3154 45.4658 15.3837 45.472 15.4552C47.0005 21.5754 46.6401 28.233 46.9042 35.2821C47.1465 41.7844 49.5666 47.3081 50.6074 52.72C46.056 51.7973 44.7264 45.5901 44.0367 40.4174C43.3781 35.4778 43.4495 30.1374 43.4402 25.7259C43.4309 22.1594 41.0449 15.1911 45.3508 15.3371H45.3539Z" fill="#004990"/>
<path fill-rule="evenodd" clip-rule="evenodd" d="M19.1987 52.0025C21.4293 50.4647 24.0575 49.0635 26.605 47.4636C29.0034 45.9599 31.7652 44.4004 33.4118 42.4463C34.1356 41.5857 34.9931 40.1535 34.844 38.9823C34.5053 36.323 28.2205 35.8073 24.8124 35.9968C21.9947 36.1521 19.208 37.0717 17.0488 35.7576C17.1607 33.9805 18.7295 33.0641 20.0344 32.4148C24.0327 30.4234 29.6061 29.2894 31.7373 25.3688C32.2219 24.4772 32.6786 23.0667 32.4549 21.6656C32.0293 19.0094 28.848 17.776 25.8874 17.0087C24.595 16.6731 23.1069 16.3407 21.1093 16.173C19.5994 16.0456 16.9805 15.8095 16.092 16.5302C15.0885 17.3473 14.7437 21.5662 14.5386 23.4582C13.9763 28.6619 13.4854 34.052 13.7029 39.4639C13.8427 42.9713 14.8275 46.6962 13.5849 49.4954C10.997 49.0635 9.90032 46.9696 9.64247 44.2388C9.2883 40.486 9.9376 35.0306 10.4782 30.2649C10.705 28.2611 10.9411 26.2262 11.1958 23.5762C11.376 21.7153 12.134 17.8537 11.435 16.8875C10.3912 15.4429 7.09808 16.9434 5.22475 17.1267C4.11566 17.2355 2.93201 17.1174 2 17.0087C3.40112 12.8799 8.67939 12.9265 13.4668 12.3517C15.2718 12.1343 17.5614 12.2834 19.559 12.3517C25.002 12.5381 30.6499 13.6938 33.7722 16.0549C35.3535 17.251 36.8602 19.0839 36.8788 21.6687C36.913 26.3132 32.6631 28.5842 30.3113 31.8214C33.536 33.2505 38.6217 34.0675 39.5071 37.7924C40.116 40.3462 38.3297 43.4435 37 44.9596C34.3749 47.9544 27.9906 51.9559 22.6688 52.3659C21.5691 52.4498 20.432 52.3038 19.3229 52.3659L19.3819 52.1454L19.2018 52.0056L19.1987 52.0025Z" fill="#004990"/>
<path d="M59.3092 69.1048V63.4041H63.6058V64.3671H60.5736V65.7154H63.1895V66.6785H60.5736V69.1017H59.3092V69.1048Z" fill="#004990"/>
<path d="M72.2765 66.29C72.2765 65.709 72.3728 65.2213 72.5623 64.8267C72.7052 64.5378 72.8978 64.2768 73.1464 64.0438C73.3918 63.8139 73.6621 63.6431 73.9572 63.5312C74.3487 63.3821 74.7991 63.3044 75.3086 63.3044C76.2313 63.3044 76.9707 63.5654 77.5268 64.0873C78.0798 64.6093 78.3594 65.3331 78.3594 66.262C78.3594 67.1909 78.0829 67.9023 77.533 68.4212C76.9831 68.94 76.2468 69.2009 75.3273 69.2009C74.4077 69.2009 73.6528 68.9431 73.1029 68.4243C72.553 67.9086 72.2765 67.194 72.2765 66.2869V66.29ZM73.5813 66.2496C73.5813 66.8958 73.746 67.3835 74.0722 67.7159C74.4015 68.0484 74.8178 68.2161 75.321 68.2161C75.8243 68.2161 76.2406 68.0515 76.5637 67.7191C76.8868 67.3897 77.0484 66.8927 77.0484 66.2309C77.0484 65.5692 76.8899 65.0908 76.5762 64.7677C76.2624 64.4477 75.843 64.2862 75.321 64.2862C74.7991 64.2862 74.3797 64.4477 74.0597 64.7739C73.7397 65.1001 73.5813 65.591 73.5813 66.2465V66.2496Z" fill="#004990"/>
<path d="M86.9059 67.2501L88.1361 67.1413C88.2107 67.5172 88.3598 67.7937 88.5866 67.9708C88.8134 68.1479 89.1179 68.2349 89.5031 68.2349C89.9101 68.2349 90.2176 68.1572 90.4258 67.9988C90.6339 67.8403 90.7364 67.6571 90.7364 67.4489C90.7364 67.3153 90.6929 67.2004 90.606 67.1041C90.519 67.0109 90.3667 66.927 90.1493 66.8586C90.0002 66.812 89.6615 66.7282 89.1365 66.6101C88.4592 66.4579 87.9808 66.2684 87.7074 66.0478C87.3222 65.734 87.1296 65.3519 87.1296 64.9014C87.1296 64.6125 87.2197 64.3391 87.3999 64.0875C87.58 63.8358 87.841 63.6432 88.1827 63.5096C88.5245 63.376 88.9346 63.3108 89.4161 63.3108C90.2021 63.3108 90.7955 63.4692 91.1931 63.7799C91.5908 64.0937 91.7989 64.5131 91.8207 65.035L90.5562 65.0847C90.5034 64.7927 90.3854 64.5814 90.2083 64.4541C90.0312 64.3267 89.764 64.2614 89.4068 64.2614C89.0495 64.2614 88.7513 64.3298 88.5431 64.4665C88.4095 64.5535 88.3412 64.6715 88.3412 64.8206C88.3412 64.9542 88.4033 65.0723 88.5307 65.1655C88.6891 65.2866 89.0775 65.414 89.6926 65.5476C90.3077 65.6812 90.7644 65.8148 91.0595 65.9577C91.3547 66.1006 91.5846 66.2932 91.7523 66.5355C91.9201 66.781 92.004 67.0823 92.004 67.4427C92.004 67.7689 91.9046 68.0765 91.7057 68.3592C91.5069 68.645 91.2242 68.8562 90.8576 68.996C90.4941 69.1358 90.0374 69.2042 89.4938 69.2042C88.7016 69.2042 88.0926 69.0364 87.667 68.704C87.2414 68.3716 86.9898 67.8869 86.9059 67.247V67.2501Z" fill="#004990"/>
<path d="M102.365 69.1049V64.3703H100.504V63.4072H105.487V64.3703H103.632V69.1049H102.368H102.365Z" fill="#004990"/>
<path d="M114.186 69.1048V63.4041H118.833V64.3671H115.45V65.6316H118.597V66.5915H115.45V68.1418H118.955V69.1017H114.186V69.1048Z" fill="#004990"/>
<path d="M127.914 69.1048V63.4041H130.58C131.251 63.4041 131.739 63.4538 132.04 63.5563C132.344 63.6588 132.587 63.8421 132.77 64.1031C132.953 64.364 133.043 64.6654 133.043 65.0009C133.043 65.4296 132.907 65.7807 132.627 66.0603C132.351 66.3399 131.937 66.5139 131.388 66.5884C131.661 66.7344 131.888 66.8929 132.065 67.0668C132.245 67.2408 132.484 67.5484 132.786 67.9926L133.55 69.1048H132.037L131.12 67.8653C130.794 67.421 130.574 67.1414 130.452 67.0265C130.334 66.9115 130.207 66.8307 130.07 66.7904C129.934 66.75 129.725 66.7251 129.433 66.7251H129.176V69.1048H127.908H127.914ZM129.182 65.8148H130.117C130.726 65.8148 131.105 65.79 131.254 65.7434C131.403 65.6968 131.524 65.616 131.608 65.5011C131.695 65.3861 131.736 65.2432 131.736 65.0724C131.736 64.8797 131.68 64.7244 131.568 64.6063C131.456 64.4883 131.297 64.4137 131.089 64.3827C130.987 64.3702 130.679 64.364 130.167 64.364H129.179V65.8117L129.182 65.8148Z" fill="#004990"/>
<path d="M142.078 69.1048V63.4041H143.345V69.1048H142.078Z" fill="#004990"/>
<path d="M152.448 69.1048V63.4041H153.678L156.244 67.2098V63.4041H157.422V69.1048H156.151L153.625 65.3892V69.1048H152.448Z" fill="#004990"/>
<path d="M169.556 67.0109V66.0509H172.284V68.3219C172.02 68.5549 171.635 68.7599 171.132 68.937C170.628 69.1141 170.119 69.2042 169.603 69.2042C168.948 69.2042 168.376 69.0799 167.888 68.8283C167.4 68.5766 167.034 68.2194 166.788 67.7565C166.543 67.2905 166.419 66.7841 166.419 66.2373C166.419 65.6439 166.555 65.1158 166.829 64.656C167.102 64.1962 167.503 63.842 168.031 63.5935C168.435 63.404 168.935 63.3108 169.532 63.3108C170.308 63.3108 170.917 63.4599 171.355 63.755C171.793 64.0533 172.076 64.4634 172.2 64.9853L170.942 65.1997C170.855 64.9201 170.687 64.6995 170.445 64.5379C170.2 64.3764 169.898 64.2956 169.532 64.2956C168.979 64.2956 168.537 64.4541 168.211 64.774C167.885 65.094 167.72 65.5662 167.72 66.1938C167.72 66.8711 167.885 67.3774 168.217 67.7161C168.547 68.0547 168.982 68.2225 169.516 68.2225C169.78 68.2225 170.047 68.1759 170.315 68.0796C170.582 67.9864 170.812 67.8714 171.001 67.7347V67.0109H169.553H169.556Z" fill="#004990"/>
<path fill-rule="evenodd" clip-rule="evenodd" d="M73.9231 42.2598C73.659 44.245 71.3166 45.6337 68.6697 45.7237C64.9572 45.848 61.7635 43.0209 62.2202 38.7958C62.3662 37.432 63.264 34.8907 65.4449 35.2107C66.2216 35.3256 66.7435 36.3943 67.834 36.0464C68.0949 36.0278 69.3531 35.8041 69.7446 36.4037C70.136 37.0033 69.496 39.1624 69.0269 40.2249C70.3411 40.7406 71.5154 39.4203 71.8944 39.268C72.2703 39.1189 71.5371 36.879 72.0125 36.7609C72.4909 36.6429 72.4256 36.8138 72.4909 36.6429C73.221 36.7485 73.8982 37.0809 74.1623 37.4786C74.4264 37.8762 74.8085 39.0754 74.6407 39.7496C74.473 40.4237 74.1281 41.1631 73.9231 42.2567V42.2598Z" fill="#00BBE3"/>
<path fill-rule="evenodd" clip-rule="evenodd" d="M88.2977 30.3454L88.1175 30.2864L87.9373 30.3454C87.8969 28.5529 88.8165 26.3999 89.2515 25.0889C89.6864 23.7779 93.7593 18.9252 94.9833 17.9218C98.1677 15.3183 105.841 15.6849 109.793 17.5645C113.229 19.1986 115.475 21.8113 118.153 24.4924C119.508 25.8469 121.045 27.3102 121.26 29.0313C121.518 31.1097 122.226 34.0641 122.397 34.0735C122.537 33.9958 122.785 36.5806 122.692 37.9879C122.263 39.6158 119.06 40.3334 117.914 38.8236C117.227 36.6241 116.805 34.3406 116.121 32.1349C115.487 30.0845 114.291 28.5684 112.775 26.9995C109.715 23.8214 106.624 20.1648 100.833 20.55C98.4255 20.7085 95.2412 22.3737 94.9802 22.5818C94.7192 22.7899 94.5453 22.9639 94.3837 23.0602C94.2191 23.1565 93.0727 24.1289 92.2339 24.7316C91.3951 25.3343 89.6926 28.9195 89.2483 29.7489C89.2483 29.7489 88.9004 30.2491 88.2915 30.3454H88.2977Z" fill="#00BBE3"/>
<path fill-rule="evenodd" clip-rule="evenodd" d="M172.815 13.3552H173.054C173.934 19.084 174.117 25.5117 175.086 31.1504C176.63 29.7058 178.376 27.4503 180.582 25.6577C182.716 23.9211 185.388 22.2 188.585 22.433C191.076 22.6132 192.788 24.2069 193.841 25.6577C191.207 26.3101 188.746 25.9808 186.317 26.6146C184.369 27.121 182.337 28.6836 180.824 30.1966C178.584 32.4365 175.692 34.6951 176.403 38.914C178.05 39.5198 179.628 39.3365 181.06 39.6316C183.915 40.2188 186.416 41.3403 188.824 42.4991C191.57 43.8195 194.574 45.6897 198.977 45.4846C199.011 44.9037 198.452 44.506 198.141 43.9313C196.376 40.6724 194.95 33.0765 197.305 29.0036C198.07 27.6802 199.231 27.0744 200.53 26.3754C201.735 29.7772 200.375 34.0831 200.648 37.721C200.844 40.2809 201.897 42.8408 203.394 44.0494C205.731 45.9413 209.378 43.953 211.276 42.2568C214.526 39.3582 216.846 34.6702 219.04 30.5539C219.776 29.1714 220.472 27.6802 221.547 26.6115C225.52 27.9039 224.899 32.8622 224.89 37.7179C224.877 45.5188 229.531 50.1354 229.55 57.1845C229.562 62.7113 227.636 66.7065 221.786 66.2622C218.981 66.0478 215.607 64.4914 213.187 63.2767C212.466 62.9163 211.034 62.6181 211.633 61.2449C211.798 60.8348 212.242 61.1952 212.469 61.2449C215.256 61.8507 219.282 63.6868 222.383 62.2018C223.97 61.4406 225.067 59.7847 225.129 57.5448C225.179 55.7958 224.601 53.9007 224.054 52.4095C223.507 50.9182 222.752 49.5296 222.261 47.9886C221.174 44.5775 220.96 41.2223 220.351 37.5999C219.913 37.4911 219.882 38.1187 219.754 38.3175C217.148 42.3096 212.982 47.6003 207.452 48.5882C204.786 49.0636 202.326 48.3614 200.763 47.156C199.017 47.765 197.607 48.2776 195.149 48.1129C188.781 47.6873 184.108 43.602 177.833 43.0956C175.981 44.562 177.805 48.6939 176.997 50.8592C173.337 51.3097 172.601 47.0846 172.101 43.9313C171.84 42.2879 171.591 40.3959 171.504 38.4387C171.417 36.4752 171.604 34.4497 171.504 32.4676C171.38 29.9916 170.696 26.7389 170.308 24.1075C169.935 21.5631 169.162 17.5244 170.069 15.5082C170.591 14.3494 171.83 13.7032 172.815 13.3583V13.3552Z" fill="#00BBE3"/>
<path fill-rule="evenodd" clip-rule="evenodd" d="M166.366 16.462C163.955 17.6332 161.367 18.6273 157.767 18.6118C157.388 18.5497 157.996 17.7668 158.245 17.4188C158.54 16.9994 158.997 16.6391 159.081 16.2228C154.091 15.2659 149.789 16.8721 146.182 18.4938C144.52 19.2425 142.774 20.0502 141.046 21.2401C139.627 22.2187 137.551 23.6602 137.7 25.779C137.859 28.0096 140.667 28.7769 142.957 29.1218C145.722 29.5381 148.549 29.5878 151.081 29.6002C157.627 29.6344 167.295 29.681 167.922 36.0497C168.239 39.2744 166.453 41.9959 164.937 43.8133C163.098 46.0128 161.156 47.5258 159.202 48.8275C156.956 50.3249 154.66 51.6484 152.274 52.6487C148.996 54.0219 142.062 55.8859 139.614 52.6487C138.965 51.7882 138.952 51.0302 138.539 49.542C138.567 49.1537 139.105 49.5296 139.136 49.542C140.552 50.1044 141.975 50.8904 144.392 50.8562C147.66 50.8096 150.78 49.3184 153.588 47.6314C156.415 45.9352 158.928 44.1178 160.634 42.2569C161.712 41.0794 163.62 38.6096 163.023 36.4038C162.526 34.5709 159.606 33.7663 157.052 33.4183C149.521 32.3931 138.213 33.8905 134.24 29.3579C132.935 27.8729 132.655 25.7448 133.404 23.626C134.749 19.8203 138.782 17.6643 143.078 15.7443C147.869 13.6038 152.367 12.1095 157.17 11.8019C162.06 11.4882 165.297 12.7774 166.366 16.4589V16.462Z" fill="#00BBE3"/>
<path d="M19.1397 52.3658C19.0434 52.3658 18.9626 52.2912 18.9564 52.1918C18.9502 52.0893 19.0279 52.0023 19.1304 51.9992C19.2018 51.9961 19.2702 51.9805 19.3385 51.965C19.4379 51.9402 19.5342 52.0054 19.5591 52.1048C19.5808 52.2042 19.5187 52.3036 19.4193 52.3254C19.3292 52.3471 19.2391 52.3658 19.149 52.3689C19.1459 52.3689 19.1428 52.3689 19.1397 52.3689V52.3658Z" fill="#004990"/>
<path fill-rule="evenodd" clip-rule="evenodd" d="M86.819 30.1468C86.9122 32.0294 85.8248 35.1268 85.7254 36.1178C85.6229 37.1089 85.3526 39.15 84.7686 40.1783C84.1845 41.2066 83.2836 44.9719 81.783 47.1062C79.1175 50.8964 75.1906 55.4819 68.2875 54.9879C65.0504 54.7549 62.5308 53.5371 59.9274 51.8812C57.9671 50.6354 55.1525 49.0137 54.674 45.789C54.5901 45.2267 54.7175 44.5463 54.556 43.8784C54.3416 42.9961 53.8445 42.44 53.3599 41.6105C53.2729 41.5266 52.7758 41.3122 52.8815 41.7285C52.0675 39.8148 50.5763 36.0868 53.5991 35.0398C55.4911 34.3843 56.4697 36.5807 57.1811 37.7861C57.7559 38.7616 58.4052 39.8552 58.7345 40.6536C59.2315 41.8652 59.3993 42.9495 59.9274 43.8784C61.6858 46.9757 67.1971 51.2008 72.7084 49.2529C76.657 47.858 78.5148 44.0182 80.9504 40.5356L81.3077 39.8179C81.8483 38.8859 83.675 35.394 84.1752 34.2041C84.6723 33.0143 85.8186 30.4108 86.0858 30.0225C86.353 29.6342 86.8221 30.1406 86.8221 30.1406L86.819 30.1468Z" fill="#004990"/>
<path fill-rule="evenodd" clip-rule="evenodd" d="M94.0234 7.37461C93.6537 6.74396 94.0171 4.85198 94.3806 4.50714C94.7472 4.16229 97.8353 2.00935 99.1587 2.00003C100.069 1.99382 101.719 2.8202 102.502 3.43222C104.303 4.83955 105.664 6.78434 105.248 9.76055C104.968 11.7551 102.589 14.3305 100.112 14.0602C98.3852 13.8707 96.9934 11.2176 97.0058 11.432C95.1418 9.29455 97.9658 7.75363 99.9913 7.37151C99.4694 5.2776 94.0203 7.37151 94.0203 7.37151L94.0234 7.37461Z" fill="#004990"/>
<path fill-rule="evenodd" clip-rule="evenodd" d="M96.1142 44.2388C99.5905 49.7066 109.165 49.486 116.538 47.7028C119.461 46.9944 122.263 46.1743 124.18 45.0745C124.599 44.8353 124.845 44.6334 125.137 44.3569C126.016 44.4004 126.575 44.1239 127.405 44.1176C127.206 45.8791 125.317 46.4383 123.941 47.2212C119.467 49.7656 113.903 52.9282 106.624 52.4778C100.709 52.1112 94.5826 49.7097 92.0537 46.0283C89.0775 41.6944 91.4665 35.6302 94.4428 32.5328C95.3717 31.5666 96.6205 30.4979 98.0248 29.6653C99.4104 28.8451 101.343 27.6957 103.281 27.8727C104.505 27.9877 106.515 29.2273 107.224 30.0226C108.19 31.113 108.718 33.965 107.941 35.7544C106.171 39.8335 99.457 42.4804 96.1173 44.2357L96.1142 44.2388ZM103.399 35.7575C103.949 35.1238 104.891 33.8407 104.595 32.6508C104.279 31.3926 102.29 31.3709 101.131 31.8151C97.885 33.0609 94.6571 35.975 94.9212 40.4145C98.059 39.4576 101.476 37.9819 103.402 35.7575H103.399Z" fill="#004990"/>
</svg>
